<svg width="640" height="108" viewBox="0 0 640 108" fill="none" xmlns="http://www.w3.org/2000/svg" font-family="ui-monospace,'JetBrains Mono','Segoe UI',monospace">
  <defs>
    <linearGradient id="chip" x1="0" y1="0" x2="0" y2="1"><stop offset="0" stop-color="#221430"/><stop offset="1" stop-color="#160d1a"/></linearGradient>
  </defs>
  <g font-size="14" font-weight="600">
    <g transform="translate(0,6)">
      <rect x="0" y="0" width="116" height="42" rx="10" fill="url(#chip)" stroke="#3a1c33"/><circle cx="22" cy="21" r="4.5" fill="#f5a9c1"/><text x="38" y="26" fill="#e9d3dd">Go</text>
      <rect x="128" y="0" width="140" height="42" rx="10" fill="url(#chip)" stroke="#3a1c33"/><circle cx="150" cy="21" r="4.5" fill="#e6a23c"/><text x="166" y="26" fill="#e9d3dd">Python</text>
      <rect x="280" y="0" width="150" height="42" rx="10" fill="url(#chip)" stroke="#3a1c33"/><circle cx="302" cy="21" r="4.5" fill="#f5a9c1"/><text x="318" y="26" fill="#e9d3dd">C# / .NET</text>
      <rect x="442" y="0" width="198" height="42" rx="10" fill="url(#chip)" stroke="#3a1c33"/><circle cx="464" cy="21" r="4.5" fill="#d9455f"/><text x="480" y="26" fill="#e9d3dd">curl_cffi</text>
    </g>
    <g transform="translate(0,58)">
      <rect x="0" y="0" width="122" height="42" rx="10" fill="url(#chip)" stroke="#3a1c33"/><circle cx="22" cy="21" r="4.5" fill="#e6a23c"/><text x="38" y="26" fill="#e9d3dd">HTTP/2</text>
      <rect x="134" y="0" width="140" height="42" rx="10" fill="url(#chip)" stroke="#3a1c33"/><circle cx="156" cy="21" r="4.5" fill="#f5a9c1"/><text x="172" y="26" fill="#e9d3dd">TLS · JA3</text>
      <rect x="286" y="0" width="160" height="42" rx="10" fill="url(#chip)" stroke="#3a1c33"/><circle cx="308" cy="21" r="4.5" fill="#d9455f"/><text x="324" y="26" fill="#e9d3dd">Playwright</text>
      <rect x="458" y="0" width="182" height="42" rx="10" fill="url(#chip)" stroke="#3a1c33"/><circle cx="480" cy="21" r="4.5" fill="#e6a23c"/><text x="496" y="26" fill="#e9d3dd">PyTorch</text>
    </g>
  </g>
</svg>
