<svg width="640" height="152" viewBox="0 0 640 152" fill="none" xmlns="http://www.w3.org/2000/svg" font-family="ui-monospace,'JetBrains Mono','Segoe UI',monospace">
  <defs><linearGradient id="card" x1="0" y1="0" x2="1" y2="0"><stop offset="0" stop-color="#221430"/><stop offset="1" stop-color="#160d1a"/></linearGradient></defs>
  <g transform="translate(0,2)">
    <rect x="0" y="0" width="640" height="44" rx="11" fill="url(#card)" stroke="#3a1c33"/><rect x="0" y="0" width="5" height="44" rx="2.5" fill="#d9455f"/>
    <text x="22" y="20" font-size="15" font-weight="700" fill="#f2d9e2">impersonate-http</text>
    <text x="22" y="35" font-size="11.5" fill="#9c8794">Go · byte-exact browser TLS + HTTP/2</text>
    <rect x="486" y="12" width="140" height="21" rx="10.5" fill="#2a1622" stroke="#5a3350"/><text x="556" y="26.5" text-anchor="middle" font-size="10.5" font-weight="700" fill="#e6a23c">★ awesome-go</text>
  </g>
  <g transform="translate(0,56)">
    <rect x="0" y="0" width="640" height="44" rx="11" fill="url(#card)" stroke="#3a1c33"/><rect x="0" y="0" width="5" height="44" rx="2.5" fill="#e6a23c"/>
    <text x="22" y="20" font-size="15" font-weight="700" fill="#f2d9e2">fingerprint-db</text>
    <text x="22" y="35" font-size="11.5" fill="#9c8794">Go · JA3/JA4 + HTTP/2 fingerprint database</text>
  </g>
  <g transform="translate(0,110)">
    <rect x="0" y="0" width="640" height="44" rx="11" fill="url(#card)" stroke="#3a1c33"/><rect x="0" y="0" width="5" height="44" rx="2.5" fill="#f5a9c1"/>
    <text x="22" y="20" font-size="15" font-weight="700" fill="#f2d9e2">tdata-extract</text>
    <text x="22" y="35" font-size="11.5" fill="#9c8794">Python · Telegram tdata session toolkit</text>
  </g>
</svg>
