<svg width="560" height="148" viewBox="0 0 560 148" fill="none"
     xmlns="http://www.w3.org/2000/svg" role="img"
     aria-label="fpcheck — Self-hostable TLS/HTTP2 fingerprint tester and differ — reports your JA3/JA4/JA4H + Akamai HTTP/2 fingerprint and diffs it against real browser profiles."
     font-family="'Segoe UI','Helvetica Neue',system-ui,sans-serif">
  <defs>
    <linearGradient id="bgfpcheck" x1="0" y1="0" x2="0.4" y2="1">
      <stop offset="0" stop-color="#1c1026"/>
      <stop offset="1" stop-color="#130a18"/>
    </linearGradient>
    <radialGradient id="glowfpcheck" cx="4%" cy="0%" r="70%">
      <stop offset="0" stop-color="#d9455f" stop-opacity="0.28"/>
      <stop offset="1" stop-color="#d9455f" stop-opacity="0"/>
    </radialGradient>
    <clipPath id="clipfpcheck"><rect width="560" height="148" rx="14"/></clipPath>
  </defs>

  <g clip-path="url(#clipfpcheck)">
    <rect width="560" height="148" rx="14" fill="url(#bgfpcheck)"/>
    <rect width="560" height="148" fill="url(#glowfpcheck)"/>
    <!-- beni edge, the same one the section plates carry -->
    <rect width="5" height="148" fill="#d9455f"/>
    <!-- faint horizon line, echoing the banner -->
    <path d="M0 102 H560" stroke="#3a1c33" stroke-width="1" opacity="0.7"/>
    <g fill="#e6a23c" opacity="0.5">
      <circle cx="540" cy="18" r="2"/>
      <circle cx="528" cy="28" r="1.4"/>
    </g>
  </g>
  <rect x="0.5" y="0.5" width="559" height="147" rx="14" fill="none" stroke="#3a1c33"/>

  <text x="26" y="42" font-size="20" font-weight="700" fill="#f6ebf0">fpcheck</text>

  <g font-size="13" fill="#c7abbb">
    <text x="26" y="70">Self-hostable TLS/HTTP2 fingerprint tester and differ — reports your</text>
    <text x="26" y="90">JA3/JA4/JA4H + Akamai HTTP/2 fingerprint and diffs it against real…</text>
  </g>

  <g font-size="12.5" font-weight="600">
    <circle cx="31" cy="118" r="5" fill="#00ADD8"/>
    <text x="44" y="122" fill="#c7abbb">Go</text>
    <g transform="translate(72.8, 111)">
      <path d="M7 0.6 8.9 4.6 13.3 5.2 10.1 8.3 10.9 12.7 7 10.6 3.1 12.7 3.9 8.3 0.7 5.2 5.1 4.6Z"
            fill="#e6a23c" opacity="0.9"/>
      <text x="20" y="11" fill="#c7abbb">1</text>
    </g>
  </g>
</svg>
